<svg xmlns="http://www.w3.org/2000/svg" xml:space="preserve" viewBox="0 0 595 654"><style>.st1{fill:#fff}</style><path id="Warstwa_2" d="M493 481c-7-3-19-4-36 3l-35-17c99 4 208-177 128-202 0 0-23-7-40 7-26 21 4 123-89 144 0 0 8-24-15-48l55-31s1-37-2-47l-98-9s24-18 33-49c0 0 20-21 35-28 0 0-13-10-21-9l27-34c-30-27-56-75-66-145 0 0-4-5-9-1-5 3-36 44-53 48s-30-5-72 4c0 0-33-25-37-40-9-9-12 3-12 3s-3 52-8 57l-21 21-8-18s7-16 19-18l-17-33s-16 5-29 22c-13-19-26-32-36-34-2-1-7-2-12 0s-8 7-9 9c0 0-10-9-16-4-6 4-13 22-5 34 0 0-30-10-5 66 7 17 21 48 59 51l107 149 7-10c4-5 10-7 13-9 2 1 6 3 10 3h10l4 1 4 3-2 3s-9-6-17-5c-8 0-21 2-27 21 0 0-16 0-28 18-13 17-34 48-17 61s33-4 33-4 6 39 45 33c0 0-9 2 0 17l-19 16s-11-52-59-34-44 160 36 171c62 1 57-41 57-41l60-52s24 3 35-1l62 37s-33 84 56 84c5 0 21-1 33-10 42-28 33-136-8-153zM354 340l-5-14 18 1-13 13z"/>  <g id="Warstwa_3">    <path d="M158 224c2 11 7 36 26 57 11 12 23 19 33 25 9 5 14 6 18 7 8 2 15 0 27-2 6-1 98-17 113-74 0-6-1-15-7-21-10-10-32-10-51 6-7 4-18 9-31 10-7 1-27 2-39-11l-4-6-3-2-49 9-8-1s-8 9-25 3zm28-116c-7 5-17 22-24 41-8 25-10 63 4 69 4 2 11 1 20-5 10-4 12-6 20-8 7-2 8-8 8-8s15-56 13-70c-1-15-4-21-9-24-12-8-24-1-32 5z" class="st1"/><path d="m221 196 8-41 5-24c4-9 8-21 19-30 9-8 18-11 23-12 4-1 20-4 38 3 26 9 36 40 35 64-2 28-20 46-25 50-4 5-22 21-46 20-10-1-29-4-31-14-3-11-14-1-14-1l-14-5 2-10z" class="st1"/>  </g>  <g id="Warstwa_4"><path d="M188 236c-7-8-6-21-1-29 8-11 23-11 30-11 7 1 15 1 20 7 6 8 4 19 0 26-8 14-26 15-28 15-4 0-14 0-21-8z"/><path d="M177 242c6 7 25 26 55 31 51 8 79-22 88-37l-5-1c-6-1-11 1-14 2-2-2 24-14 38 7 0 0-9-7-12-6 0 0-37 50-76 50s-68-32-74-38l5 11c0 1-4 7-5 3s-6-21-2-26c2-1 2 4 2 4z"/> </g> <g id="Warstwa_5"><path d="M212 249s-2 1 1 6 4 8 6 7-5-14-7-13z"/><path fill="none" stroke="#000" stroke-linecap="round" stroke-miterlimit="10" stroke-width="3" d="M344 220 478 82M353 221l139-115M134 227l-49-15m61 32-58-3"/></g><g id="Warstwa_6"><ellipse cx="336" cy="149.3" rx="12" ry="25.4" transform="rotate(12 336 149)"/><ellipse cx="213.3" cy="154.7" rx="12" ry="25.4" transform="rotate(12 213 155)"/></g></svg>
